<svg width="133.594" height="152.637" viewBox="0 0 133.594 152.637" xmlns="http://www.w3.org/2000/svg"><g id="svgGroup" stroke-linecap="round" fill-rule="evenodd" font-size="9pt" stroke="#00000000" stroke-width="0.25mm" fill="#fafafa" style="stroke:#00000000;stroke-width:0.25mm;fill:#fafafa"><path d="M 122.754 84.375 L 133.594 105.469 Q 128.32 109.277 121.289 114.111 A 927.057 927.057 0 0 1 110.33 121.527 A 1054.305 1054.305 0 0 1 106.494 124.072 Q 98.73 129.199 90.967 134.18 A 649.873 649.873 0 0 1 83.496 138.904 A 494.66 494.66 0 0 1 76.611 143.115 A 356.959 356.959 0 0 1 71.935 145.876 Q 70.098 146.94 68.448 147.861 A 172.202 172.202 0 0 1 65.332 149.561 A 106.161 106.161 0 0 1 63.688 150.417 Q 61.135 151.716 59.842 152.157 A 5.399 5.399 0 0 1 59.18 152.344 Q 58.589 152.541 57.734 152.605 A 11.962 11.962 0 0 1 56.836 152.637 Q 52.078 152.637 44.512 150.364 A 93.907 93.907 0 0 1 43.799 150.146 A 143.089 143.089 0 0 1 29.588 144.891 A 157.732 157.732 0 0 1 27.539 143.994 A 134.822 134.822 0 0 1 16.883 138.682 A 115.27 115.27 0 0 1 12.451 136.084 Q 6.393 132.346 3.851 128.948 A 12.305 12.305 0 0 1 3.223 128.027 A 18.235 18.235 0 0 1 1.964 125.095 Q 1.466 123.612 1.109 121.866 A 37.293 37.293 0 0 1 0.732 119.678 Q 0.103 115.272 0.014 109.676 A 117.838 117.838 0 0 1 0 107.813 Q 0 101.953 0.586 95.361 A 163.036 163.036 0 0 1 1.712 85.803 A 144.006 144.006 0 0 1 2.197 82.764 Q 3.223 76.758 4.541 71.777 A 46.125 46.125 0 0 1 5.499 68.596 Q 6.464 65.79 7.617 63.867 A 50.622 50.622 0 0 1 9.128 61.089 Q 11.041 57.797 14.063 53.467 A 182.037 182.037 0 0 1 19.746 45.78 A 228.629 228.629 0 0 1 24.17 40.283 A 370.584 370.584 0 0 1 34.728 28.123 A 407.817 407.817 0 0 1 36.328 26.367 A 183.84 183.84 0 0 1 45.19 17.322 A 157.721 157.721 0 0 1 49.219 13.623 A 102.827 102.827 0 0 1 55.554 8.423 A 75.833 75.833 0 0 1 61.67 4.248 Q 67.676 0.586 72.363 0.293 A 0.934 0.934 0 0 0 72.528 0.279 Q 72.701 0.248 72.803 0.146 A 0.325 0.325 0 0 1 72.91 0.08 Q 73.084 0.008 73.453 0.001 A 4.319 4.319 0 0 1 73.535 0 Q 77.682 0 81.83 3.211 A 23.331 23.331 0 0 1 82.91 4.102 Q 87.598 8.203 91.113 14.063 Q 94.629 19.922 96.826 26.514 Q 98.697 32.127 98.975 36.784 A 26.788 26.788 0 0 1 99.023 38.379 Q 99.023 40.407 98.85 41.569 A 6.576 6.576 0 0 1 98.73 42.188 A 27.008 27.008 0 0 1 97.612 45.585 Q 96.181 49.188 93.457 53.76 Q 89.355 60.645 84.375 67.236 A 185.655 185.655 0 0 1 79.468 73.462 A 143.152 143.152 0 0 1 74.707 78.955 A 141.144 141.144 0 0 1 72.51 81.308 Q 69.467 84.486 67.714 85.811 A 13.521 13.521 0 0 1 67.676 85.84 A 7.998 7.998 0 0 1 66.467 86.652 Q 65.104 87.416 62.942 88.137 A 41.718 41.718 0 0 1 61.377 88.623 A 132.237 132.237 0 0 1 57.123 89.777 Q 54.937 90.333 52.49 90.889 A 229.125 229.125 0 0 1 50.83 91.26 Q 44.824 92.578 38.086 93.75 Q 31.348 94.922 24.902 95.801 Q 24.005 100.287 23.451 103.828 A 116.728 116.728 0 0 0 23.145 105.908 Q 22.605 109.82 22.314 111.62 A 62.012 62.012 0 0 1 22.266 111.914 A 10.729 10.729 0 0 0 23.431 115.124 Q 24.311 116.742 25.781 118.359 A 29.128 29.128 0 0 0 29.777 121.98 A 37.413 37.413 0 0 0 33.105 124.219 A 40.99 40.99 0 0 0 40.274 127.597 A 47.953 47.953 0 0 0 42.92 128.467 A 38.361 38.361 0 0 0 53.906 130.078 L 56.396 130.078 A 10.591 10.591 0 0 0 58.273 129.917 A 9.354 9.354 0 0 0 58.887 129.785 A 30.94 30.94 0 0 0 62.328 128.58 Q 66.769 126.755 72.949 123.047 A 270.651 270.651 0 0 0 84.222 115.883 A 328.302 328.302 0 0 0 91.26 111.035 A 296.446 296.446 0 0 0 109.424 97.119 Q 118.066 89.941 122.754 84.375 Z M 68.555 21.973 A 4.435 4.435 0 0 0 67.043 22.274 Q 65.65 22.784 63.863 24.154 A 28.853 28.853 0 0 0 62.256 25.488 Q 59.181 28.221 55.753 32.282 A 106.414 106.414 0 0 0 53.76 34.717 A 150.707 150.707 0 0 0 49.183 40.802 Q 46.767 44.179 44.238 48.047 A 125.274 125.274 0 0 0 35.449 63.867 A 77.291 77.291 0 0 0 32.813 69.727 A 201.345 201.345 0 0 0 31.055 74.286 A 227.894 227.894 0 0 0 30.469 75.879 A 231.834 231.834 0 0 0 41.289 73.519 A 272.032 272.032 0 0 0 46.436 72.217 Q 54.058 70.211 58.14 67.839 A 19.486 19.486 0 0 0 58.887 67.383 Q 60.563 66.185 62.533 63.03 A 41.2 41.2 0 0 0 63.428 61.523 A 76.814 76.814 0 0 0 66.354 55.787 A 95.703 95.703 0 0 0 68.115 51.709 Q 70.313 46.289 71.777 40.283 Q 72.899 35.685 73.162 32.031 A 29.973 29.973 0 0 0 73.242 29.883 Q 73.242 26.66 72.07 24.316 A 5.065 5.065 0 0 0 71.247 23.106 A 3.533 3.533 0 0 0 68.555 21.973 Z" vector-effect="non-scaling-stroke"/></g></svg>